<svg id="Layer_1" data-name="Layer 1" xmlns="http://www.w3.org/2000/svg" viewBox="0 0 49.09 49.09"><defs><style>.cls-1{fill:#231f20;}.cls-2{fill:#fff;}</style></defs><title>logo</title><circle class="cls-1" cx="24.55" cy="24.55" r="24.55"/><path class="cls-2" d="M25,14.4a9,9,0,0,0-2.49,1.75c-1.41,1.41-2.18,3.06-2.94,3-.47,0-.57-.47-1.56-.71a3.39,3.39,0,0,0-1.12-.09,3.24,3.24,0,0,0-1.87.86,3.59,3.59,0,0,0-.83,1.14c-.52.1-1.27.23-2.18.37a21.82,21.82,0,0,1-3.76.42C5.91,21,5,19.46,4.43,19.89s.12,2.86,1.38,4.63c1,1.35,1.33,1.29,2.59,2.72.59.65,2.43,2.63,2.07,4.7s-1.94,2.85-1.6,3.35,2.05-.08,2.9-.45c1.48-.63,1.81-1.28,3.29-1.91a8.56,8.56,0,0,1,2.26-.62c.22.14,2.82,1.62,5.25.37A4.89,4.89,0,0,0,24.37,31a1.94,1.94,0,0,0,.36.11l.27,0ZM21.82,29.84a5.19,5.19,0,0,0-1-.16l-1.05-.1a19.3,19.3,0,0,1-2.56-.35,8,8,0,0,1-3.05-1.06A15.78,15.78,0,0,1,12.6,27c-.47-.39-.84-.73-1.1-1a4.63,4.63,0,0,0,.84,0,6,6,0,0,0,1.53-.34A8.84,8.84,0,0,1,17,25a5.65,5.65,0,0,1,2.63.89,6.52,6.52,0,0,1,1.82,1.49,6.29,6.29,0,0,1,1.34,2.91A3.35,3.35,0,0,0,21.82,29.84Z" transform="translate(-0.45 -0.4)"/><path class="cls-2" d="M25,31.17l.26,0a2.07,2.07,0,0,0,.37-.11,4.81,4.81,0,0,0,1.8,1.65c2.42,1.25,5-.23,5.25-.37a8.76,8.76,0,0,1,2.26.62c1.47.63,1.81,1.28,3.28,1.91.85.37,2.57.94,2.9.45s-1.26-1.4-1.6-3.35,1.49-4.05,2.07-4.7c1.26-1.43,1.64-1.37,2.6-2.72,1.25-1.77,2-4.15,1.37-4.63S44.08,21,41.74,21.16A21.91,21.91,0,0,1,38,20.74c-.91-.14-1.66-.27-2.18-.37A3.43,3.43,0,0,0,35,19.23a3.24,3.24,0,0,0-1.87-.86,3.32,3.32,0,0,0-1.11.09c-1,.24-1.1.68-1.57.71-.76,0-1.53-1.61-2.94-3A8.93,8.93,0,0,0,25,14.4a45,45,0,0,0,0,16.77Zm2.24-.89a6.29,6.29,0,0,1,1.34-2.91,6.53,6.53,0,0,1,1.83-1.49A5.56,5.56,0,0,1,33,25a8.79,8.79,0,0,1,3.09.68,6,6,0,0,0,1.53.34,4.62,4.62,0,0,0,.84,0c-.26.24-.63.58-1.1,1a15.78,15.78,0,0,1-1.52,1.19,8,8,0,0,1-3,1.06,18.85,18.85,0,0,1-2.56.35l-1.05.1a4.88,4.88,0,0,0-1,.16A3.56,3.56,0,0,0,27.24,30.28Z" transform="translate(-0.45 -0.4)"/><path class="cls-2" d="M25.75,12.47" transform="translate(-0.45 -0.4)"/><path class="cls-2" d="M25.08,14.4a8.78,8.78,0,0,0-2.48,1.75c-1.41,1.41-2.18,3.06-3,3-.46,0-.57-.47-1.56-.71A3.35,3.35,0,0,0,17,18.37a3.17,3.17,0,0,0-1.87.86,3.29,3.29,0,0,0-.83,1.14c-.52.1-1.27.23-2.18.37a21.91,21.91,0,0,1-3.76.42C6,21,5.06,19.46,4.52,19.89s.11,2.86,1.37,4.63c1,1.35,1.33,1.29,2.6,2.72.58.65,2.42,2.63,2.06,4.7S8.61,34.79,9,35.29s2-.08,2.89-.45c1.48-.63,1.82-1.28,3.29-1.91a8.66,8.66,0,0,1,2.26-.62c.23.14,2.82,1.62,5.25.37A4.81,4.81,0,0,0,24.45,31a2.22,2.22,0,0,0,.36.11l.27,0ZM21.9,29.84a4.88,4.88,0,0,0-1-.16l-1.05-.1a18.85,18.85,0,0,1-2.56-.35,8,8,0,0,1-3.05-1.06A17.2,17.2,0,0,1,12.68,27c-.46-.39-.84-.73-1.1-1a4.74,4.74,0,0,0,.85,0A5.75,5.75,0,0,0,14,25.67a8.89,8.89,0,0,1,3.1-.68,5.61,5.61,0,0,1,2.62.89,6.52,6.52,0,0,1,1.82,1.49,6.22,6.22,0,0,1,1.35,2.91A3.56,3.56,0,0,0,21.9,29.84Z" transform="translate(-0.45 -0.4)"/><path class="cls-2" d="M25.08,31.17l.27,0a2.22,2.22,0,0,0,.36-.11,4.89,4.89,0,0,0,1.8,1.65c2.43,1.25,5-.23,5.25-.37a8.56,8.56,0,0,1,2.26.62c1.47.63,1.81,1.28,3.29,1.91.85.37,2.56.94,2.9.45s-1.27-1.4-1.6-3.35,1.48-4.05,2.06-4.7c1.27-1.43,1.64-1.37,2.6-2.72,1.26-1.77,2-4.15,1.37-4.63S44.17,21,41.83,21.16a21.82,21.82,0,0,1-3.76-.42c-.91-.14-1.67-.27-2.18-.37a3.49,3.49,0,0,0-.84-1.14,3.17,3.17,0,0,0-1.87-.86,3.35,3.35,0,0,0-1.11.09c-1,.24-1.09.68-1.56.71-.76,0-1.54-1.61-2.94-3a9,9,0,0,0-2.49-1.75,45.68,45.68,0,0,0,0,16.77Zm2.25-.89a6.18,6.18,0,0,1,1.34-2.91,6.52,6.52,0,0,1,1.82-1.49A5.61,5.61,0,0,1,33.12,25a8.84,8.84,0,0,1,3.09.68,5.75,5.75,0,0,0,1.52.34,4.73,4.73,0,0,0,.85,0c-.26.24-.64.58-1.1,1A17.2,17.2,0,0,1,36,28.17a8,8,0,0,1-3.05,1.06,18.85,18.85,0,0,1-2.56.35l-1.05.1a5,5,0,0,0-1,.16A3.35,3.35,0,0,0,27.33,30.28Z" transform="translate(-0.45 -0.4)"/></svg>